<svg xmlns="http://www.w3.org/2000/svg" viewBox="0 0 179.9 64" aria-hidden="true">
  <path
    fill="#00DD00"
    d="M28.3,32c0-2.3,1.9-4.1,4.2-4.1s4.2,1.8,4.2,4.1c0,2.3-1.9,4.1-4.2,4.1S28.3,34.3,28.3,32L28.3,32z M39.7,25.9
		l10.1-5.7c1.7-0.9,2.3-3,1.3-4.7c-0.2-0.3-0.3-0.5-0.6-0.8c-3.2-3.3-7.3-5.6-11.7-6.7c-2.2-0.6-4.4,1.1-4.4,3.4v11.5
		C34.4,25.5,37.3,27.2,39.7,25.9z M30.7,22.9V11.4c0-2.3-2.2-3.9-4.4-3.4c-4.4,1.1-8.5,3.4-11.7,6.7c-1.6,1.6-1.2,4.3,0.8,5.4
		l10.1,5.7C27.8,27.2,30.7,25.5,30.7,22.9L30.7,22.9z M41.5,35l10.1,5.7c2,1.1,4.5,0.1,5.2-2.1c1.2-4.4,1.2-9,0-13.4
		c-0.6-2.2-3.2-3.2-5.2-2.1L41.5,29c-1.7,0.9-2.3,3-1.3,4.7C40.5,34.2,41,34.7,41.5,35L41.5,35z M25.4,38.1l-10.1,5.7
		c-1.7,0.9-2.3,3-1.3,4.7c0.2,0.3,0.3,0.5,0.6,0.8c3.2,3.3,7.3,5.6,11.7,6.7c2.2,0.6,4.4-1.1,4.4-3.4V41.1
		C30.7,38.5,27.8,36.8,25.4,38.1L25.4,38.1z M23.6,29l-10.1-5.7c-2-1.1-4.5-0.1-5.2,2.1c-1.2,4.4-1.2,9,0,13.4
		c0.6,2.2,3.2,3.2,5.2,2.1L23.6,35c1.7-0.9,2.2-3,1.3-4.7C24.6,29.8,24.1,29.3,23.6,29z M34.4,41.2v11.5c0,2.3,2.2,3.9,4.4,3.4
		c4.4-1.1,8.5-3.4,11.7-6.7c1.6-1.6,1.2-4.3-0.8-5.4l-10.1-5.7C37.3,36.8,34.4,38.5,34.4,41.2z"
  />
  <path
    fill="#00DD00"
    d="M32.5,64C14.6,64,0,49.7,0,32C0,14.3,14.6,0,32.5,0c18,0,32.5,14.3,32.5,32C65.1,49.7,50.5,64,32.5,64z
		 M61.4,32c0-15.6-12.9-28.4-28.9-28.4C16.6,3.6,3.7,16.4,3.7,32c0,15.6,12.9,28.4,28.8,28.4C48.4,60.4,61.4,47.6,61.4,32z"
  />
  <path
    fill="#00DD00"
    d="M108.9,31.3h-5.6v16.3h5.6C108.9,47.6,108.9,31.3,108.9,31.3z M88.6,34c0-0.3,0-15.2,0-17.9H83v18
		c0,3.6,1.5,7,4,9.5c0.3,0.3,0.6,0.6,0.9,0.8c2.6,2.1,5.7,3.2,9.3,3.2h3.2v-5.5h-3.6C92.3,42.1,88.6,38.4,88.6,34z M147.5,23.4
		c-1.9-2-4.4-2.8-7-2.8c-2.7,0-5.2,0.9-7,2.8c-1.4,1.4-2.2,3.2-2.2,3.2s-0.8-1.8-2.2-3.2c-1.9-1.9-4.3-2.8-7-2.8
		c-2.6,0-5.1,0.8-7,2.8c-2.1,2.1-3.1,5.2-3.1,8.7c0,6,0,13.6,0,15.4h5.6c0-2.1,0.1-11.6,0.1-15.4c0-4.8,2.6-6.5,5.3-6.5
		c0.6,0,1.2,0.1,1.7,0.3c1.1,0.3,2.3,1.4,2.9,2.3c0.5,0.8,0.9,1.8,0.9,3.8v15.6h5.9V31.9c0-2,0.3-2.9,0.9-3.8
		c0.5-0.9,1.8-1.9,2.9-2.3c0.6-0.2,1.1-0.3,1.7-0.3c2.6,0,5.3,1.7,5.3,6.5c0,3.8,0.1,13.3,0.1,15.4h5.6c0-1.8,0-9.4,0-15.4
		C150.6,28.6,149.6,25.6,147.5,23.4L147.5,23.4z M179.9,33.9c0-3.6-1.4-6.5-3.8-9c-2.4-2.6-6.1-4.2-9.8-4.2c-4,0-7.4,1.5-10.2,4.4
		c-2.5,2.6-3.5,5.6-3.5,9.4c0,3.8,1.5,7.3,4.2,9.7c2.9,2.5,5.8,3.8,10.1,3.8c3.7,0,7.5-1.4,10-3.2l-3.6-3.6c-1.8,1.2-4.1,2-6.3,2
		c-3.1,0-6.6-1.9-8-4.5l20.7-3.6C179.9,34.7,179.9,34.2,179.9,33.9L179.9,33.9z M158.6,33.5c0.1-4,2.3-7.8,7.8-7.8
		c4.8,0,7.1,3.1,7.6,5.7L158.6,34V33.5z M106.1,28c-3.4,0-4.2-1.9-4.2-3.7s1-3.7,4.2-3.7s4.2,1.9,4.2,3.7S109.4,28,106.1,28z"
  />
</svg>
